<svg xmlns="http://www.w3.org/2000/svg" xmlns:xlink="http://www.w3.org/1999/xlink" xmlns:lucid="lucid" width="1761" height="812.47"><g transform="translate(-20 -157.53333333333333)" lucid:page-tab-id="0_0"><path d="M0 0h1870.4v1323.2H0z" fill="#fff"/><path d="M61.33 350H280l-21.33 80H40z" stroke="#000" stroke-width="2" fill="#fff"/><use xlink:href="#a" transform="matrix(1,0,0,1,45,355) translate(56.2950390625 31.107421875)"/><use xlink:href="#b" transform="matrix(1,0,0,1,45,355) translate(121.10558593750001 31.107421875)"/><use xlink:href="#c" transform="matrix(1,0,0,1,45,355) translate(19.889765625000003 46.90541294642858)"/><path d="M540 510h160v120H540z" stroke="#000" stroke-width="2" fill="#fff"/><use xlink:href="#d" transform="matrix(1,0,0,1,545,515) translate(5.549999999999997 48.775)"/><use xlink:href="#e" transform="matrix(1,0,0,1,545,515) translate(66.5 48.775)"/><use xlink:href="#f" transform="matrix(1,0,0,1,545,515) translate(101.5 48.775)"/><use xlink:href="#g" transform="matrix(1,0,0,1,545,515) translate(55.575 70.375)"/><path d="M320 510h160v120H320z" stroke="#000" stroke-width="2" fill="#fff"/><use xlink:href="#h" transform="matrix(1,0,0,1,325,515) translate(39.55 38.4625)"/><use xlink:href="#i" transform="matrix(1,0,0,1,325,515) translate(71.45 38.4625)"/><use xlink:href="#j" transform="matrix(1,0,0,1,325,515) translate(36.575 60.0625)"/><use xlink:href="#k" transform="matrix(1,0,0,1,325,515) translate(36.075 81.66250000000001)"/><use xlink:href="#l" transform="matrix(1,0,0,1,325,515) translate(76.975 81.66250000000001)"/><path d="M60 520h200v100H60z" fill="#fff"/><path d="M60 520h200m0 100H60" stroke="#000" stroke-width="2" fill="#fff"/><use xlink:href="#m" transform="matrix(1,0,0,1,80,520) translate(8.125 42.8)"/><use xlink:href="#n" transform="matrix(1,0,0,1,80,520) translate(41.075 42.8)"/><use xlink:href="#o" transform="matrix(1,0,0,1,80,520) translate(61.075 42.8)"/><use xlink:href="#p" transform="matrix(1,0,0,1,80,520) translate(14.174999999999997 64.4)"/><use xlink:href="#q" transform="matrix(1,0,0,1,80,520) translate(66.975 64.4)"/><use xlink:href="#r" transform="matrix(1,0,0,1,80,520) translate(110.97500000000001 64.4)"/><path d="M161 500.5h-2v-21.88h2zm0-46.15h-2V432h2z"/><path d="M161 432.03h-2V431h2zM160 515.76l-4.64-14.26h9.28z"/><path d="M160 519l-6-18.5h12zm-3.26-16.5l3.26 10.03 3.26-10.03z"/><use xlink:href="#s" transform="matrix(1,0,0,1,81.38611111111112,454.34839099555404) translate(0 16.177777777777777)"/><use xlink:href="#t" transform="matrix(1,0,0,1,81.38611111111112,454.34839099555404) translate(76.33888888888887 16.177777777777777)"/><path d="M540 670h160v120H540z" stroke="#000" stroke-width="2" fill="#fff"/><use xlink:href="#d" transform="matrix(1,0,0,1,545,675) translate(3.625 59.0875)"/><use xlink:href="#u" transform="matrix(1,0,0,1,545,675) translate(64.575 59.0875)"/><use xlink:href="#v" transform="matrix(1,0,0,1,545,675) translate(118.47500000000001 59.0875)"/><path d="M702 730h93V630h75.5" stroke="#000" stroke-width="2" fill="none"/><path d="M702.03 731H701v-2h1.03z"/><path d="M885.76 630l-14.26 4.64v-9.28z" stroke="#000" stroke-width="2"/><path d="M890 830h160v120H890z" stroke="#000" stroke-width="2" fill="#fff"/><use xlink:href="#w" transform="matrix(1,0,0,1,895,835) translate(11.574999999999996 48.775)"/><use xlink:href="#x" transform="matrix(1,0,0,1,895,835) translate(70.475 48.775)"/><use xlink:href="#y" transform="matrix(1,0,0,1,895,835) translate(38.575 70.375)"/><use xlink:href="#z" transform="matrix(1,0,0,1,895,835) translate(66.475 70.375)"/><path d="M890 570h160v120H890z" stroke="#000" stroke-width="2" fill="#fff"/><use xlink:href="#w" transform="matrix(1,0,0,1,895,575) translate(9.125 59.0875)"/><use xlink:href="#y" transform="matrix(1,0,0,1,895,575) translate(68.025 59.0875)"/><use xlink:href="#z" transform="matrix(1,0,0,1,895,575) translate(95.92500000000001 59.0875)"/><path d="M621 508h-2v-35.87h2zm0-60.13h-2V429.5h2z"/><path d="M621 509h-2v-1.03h2zM624.64 428.5h-9.28l4.64-14.26z"/><path d="M626 429.5h-12l6-18.5zm-9.26-2h6.52L620 417.47z"/><use xlink:href="#A" transform="matrix(1,0,0,1,535.3194444444445,447.8666666666667) translate(0 16.177777777777774)"/><use xlink:href="#B" transform="matrix(1,0,0,1,535.3194444444445,447.8666666666667) translate(76.33888888888886 16.177777777777774)"/><path d="M540 290h160v120H540z" stroke="#000" stroke-width="2" fill="#fff"/><use xlink:href="#C" transform="matrix(1,0,0,1,545,295) translate(50.025 38.4625)"/><use xlink:href="#D" transform="matrix(1,0,0,1,545,295) translate(14.949999999999996 60.0625)"/><use xlink:href="#E" transform="matrix(1,0,0,1,545,295) translate(99.80000000000001 60.0625)"/><use xlink:href="#F" transform="matrix(1,0,0,1,545,295) translate(18.099999999999994 81.66250000000001)"/><use xlink:href="#G" transform="matrix(1,0,0,1,545,295) translate(54.05 81.66250000000001)"/><use xlink:href="#H" transform="matrix(1,0,0,1,545,295) translate(99.05 81.66250000000001)"/><path d="M261 570h39.5" stroke="#000" stroke-width="2" fill="none"/><path d="M261.03 571H260v-2h1.03z"/><path d="M315.76 570l-14.26 4.64v-9.28z" stroke="#000" stroke-width="2"/><path d="M482 570h38.5" stroke="#000" stroke-width="2" fill="none"/><path d="M482.03 571H481v-2h1.03z"/><path d="M535.76 570l-14.26 4.64v-9.28z" stroke="#000" stroke-width="2"/><path d="M1060 290l80 60-80 60-80-60z" stroke="#000" stroke-width="2" fill="#fff"/><use xlink:href="#I" transform="matrix(1,0,0,1,985,295) translate(24.880000000000003 59.0875)"/><use xlink:href="#J" transform="matrix(1,0,0,1,985,295) translate(39.88 59.0875)"/><use xlink:href="#K" transform="matrix(1,0,0,1,985,295) translate(80.13 59.0875)"/><path d="M702 350h257.83" stroke="#000" stroke-width="2" fill="none"/><path d="M702.03 351H701v-2h1.03z"/><path d="M975.1 350l-14.27 4.64v-9.28z" stroke="#000" stroke-width="2"/><path d="M1171 889h89.5v2H1169V732.65h2zm-108.33-360H1171v155.12h-2V531h-108.33v-62.2h2zm0-84.46h-2V411h2z"/><path d="M1062.67 411.03h-2v-.28l2-1.5zM1275.76 890l-14.26 4.64v-9.28z"/><path d="M1279 890l-18.5 6v-12zm-16.5 3.26l10.03-3.26-10.03-3.26z"/><use xlink:href="#L" transform="matrix(1,0,0,1,1034.226234567901,444.53854187582556) translate(0 16.177777777777777)"/><use xlink:href="#M" transform="matrix(1,0,0,1,1097.6493827160493,684.1215926782941) translate(36.99481481481482 16.177777777777777)"/><use xlink:href="#N" transform="matrix(1,0,0,1,1097.6493827160493,684.1215926782941) translate(0.0049999999999954525 40.44444444444444)"/><path d="M1172.36 351h-29.7v-2h29.7zm68.14 0h-12.2v-2h12.2z"/><path d="M1142.7 351h-2.37l1.34-1-1.34-1h2.36zM1255.76 350l-14.26 4.64v-9.28z"/><path d="M1259 350l-18.5 6v-12zm-16.5 3.26l10.03-3.26-10.03-3.26z"/><use xlink:href="#O" transform="matrix(1,0,0,1,1172.3583333333336,339.2) translate(0 14.4)"/><path d="M1260 290h160v120h-160z" stroke="#000" stroke-width="2" fill="#fff"/><use xlink:href="#P" transform="matrix(1,0,0,1,1265,295) translate(26.625 59.0875)"/><use xlink:href="#Q" transform="matrix(1,0,0,1,1265,295) translate(85.525 59.0875)"/><path d="M160 830h180v120H160z" stroke="#000" stroke-width="2" fill="#fff"/><use xlink:href="#R" transform="matrix(1,0,0,1,165,835) translate(33.525 48.775)"/><use xlink:href="#S" transform="matrix(1,0,0,1,165,835) translate(88.475 48.775)"/><use xlink:href="#T" transform="matrix(1,0,0,1,165,835) translate(50.575 70.375)"/><path d="M482 570h28v160h10.5" stroke="#000" stroke-width="2" fill="none"/><path d="M482.03 571H481v-2h1.03z"/><path d="M535.76 730l-14.26 4.64v-9.28z" stroke="#000" stroke-width="2"/><path d="M702 570h93v60h75.5" stroke="#000" stroke-width="2" fill="none"/><path d="M702.03 571H701v-2h1.03z"/><path d="M885.76 630l-14.26 4.64v-9.28z" stroke="#000" stroke-width="2"/><path d="M970 692v118.5" stroke="#000" stroke-width="2" fill="none"/><path d="M971 692.03h-2V691h2z"/><path d="M970 825.76l-4.64-14.26h9.28z" stroke="#000" stroke-width="2"/><path d="M342 890h528.5" stroke="#000" stroke-width="2" fill="none"/><path d="M342.03 891H341v-2h1.03z"/><path d="M885.76 890l-14.26 4.64v-9.28z" stroke="#000" stroke-width="2"/><path d="M1280 830h160v120h-160z" stroke="#000" stroke-width="2" fill="#fff"/><g><use xlink:href="#U" transform="matrix(1,0,0,1,1285,835) translate(6.599999999999994 48.775)"/><use xlink:href="#u" transform="matrix(1,0,0,1,1285,835) translate(40.599999999999994 48.775)"/><use xlink:href="#V" transform="matrix(1,0,0,1,1285,835) translate(94.5 48.775)"/><use xlink:href="#e" transform="matrix(1,0,0,1,1285,835) translate(25.049999999999997 70.375)"/><use xlink:href="#G" transform="matrix(1,0,0,1,1285,835) translate(60.05 70.375)"/><use xlink:href="#W" transform="matrix(1,0,0,1,1285,835) translate(105.05 70.375)"/></g><path d="M1280 510h160v120h-160z" stroke="#000" stroke-width="2" fill="#fff"/><g><use xlink:href="#X" transform="matrix(1,0,0,1,1285,515) translate(24.074999999999996 17.8375)"/><use xlink:href="#Y" transform="matrix(1,0,0,1,1285,515) translate(72.025 17.8375)"/><use xlink:href="#Z" transform="matrix(1,0,0,1,1285,515) translate(13.049999999999997 39.4375)"/><use xlink:href="#aa" transform="matrix(1,0,0,1,1285,515) translate(97.95 39.4375)"/><use xlink:href="#ab" transform="matrix(1,0,0,1,1285,515) translate(14.524999999999999 61.0375)"/><use xlink:href="#ac" transform="matrix(1,0,0,1,1285,515) translate(105.475 61.0375)"/><use xlink:href="#ad" transform="matrix(1,0,0,1,1285,515) translate(3.0250000000000057 82.63750000000002)"/><use xlink:href="#ae" transform="matrix(1,0,0,1,1285,515) translate(72.025 82.63750000000002)"/><use xlink:href="#af" transform="matrix(1,0,0,1,1285,515) translate(10.549999999999997 104.23750000000001)"/><use xlink:href="#ag" transform="matrix(1,0,0,1,1285,515) translate(42.55 104.23750000000001)"/><use xlink:href="#ah" transform="matrix(1,0,0,1,1285,515) translate(79.45 104.23750000000001)"/></g><path d="M1361 828h-2v-63.03h2zm0-111.57h-2V649.5h2z"/><path d="M1361 829h-2v-1.03h2zM1364.64 648.5h-9.28l4.64-14.26z"/><path d="M1366 649.5h-12l6-18.5zm-9.26-2h6.52l-3.26-10.03z"/><g><use xlink:href="#M" transform="matrix(1,0,0,1,1305.5685185185184,716.4333333333332) translate(19.075679012345688 16.177777777777777)"/><use xlink:href="#ai" transform="matrix(1,0,0,1,1305.5685185185184,716.4333333333332) translate(0.005000000000002558 40.44444444444444)"/></g><path d="M1540 510h160l-80 120z" stroke="#000" stroke-width="2" fill="#fff"/><g><use xlink:href="#aj" transform="matrix(1,0,0,1,1545,515) translate(36.03 48.775)"/><use xlink:href="#n" transform="matrix(1,0,0,1,1545,515) translate(73.03 48.775)"/><use xlink:href="#ak" transform="matrix(1,0,0,1,1545,515) translate(93.03 48.775)"/><use xlink:href="#al" transform="matrix(1,0,0,1,1545,515) translate(58.029999999999994 70.375)"/></g><path d="M1422 350h259.8v140.5" stroke="#000" stroke-width="2" fill="none"/><path d="M1422.03 351H1421v-2h1.03z"/><path d="M1681.8 505.76l-4.64-14.26h9.28z" stroke="#000" stroke-width="2"/><path d="M1360.6 508v-39h197.2v21.5" stroke="#000" stroke-width="2" fill="none"/><path d="M1361.6 509h-2v-1.03h2z"/><path d="M1557.8 505.76l-4.64-14.26h9.28z" stroke="#000" stroke-width="2"/><path d="M1771 661h-152v-28.2h2V659h148V191h-654.5v-2H1771zM941.7 191H401v299.5h-2V189h542.7z"/><path d="M1621 632.83h-2v-2.53l1 1.5 1-1.5zM400 505.76l-4.64-14.26h9.28z"/><path d="M400 509l-6-18.5h12zm-3.26-16.5l3.26 10.03 3.26-10.03z"/><g><use xlink:href="#am" transform="matrix(1,0,0,1,941.6867283950612,168.53333333333333) translate(0 28.622222222222213)"/><use xlink:href="#an" transform="matrix(1,0,0,1,941.6867283950612,168.53333333333333) translate(93.32037037037033 28.622222222222213)"/></g><defs><path fill="#ce9178" d="M1004 0L860-453H369L223 0H33l483-1468h195L1196 0h-192zM807-618c-63-210-144-435-195-650-51 232-127 431-190 650h385" id="ao"/><path fill="#ce9178" d="M977 0v-707c0-97-9-165-27-203s-47-57-88-57c-58 0-100 28-126 83s-40 148-40 278V0H535v-707c0-173-42-260-125-260-56 0-96 26-120 79s-36 160-36 319V0H92v-1098h127l27 148h10c45-112 112-168 201-168 109 0 180 61 213 182h6c51-121 124-182 219-182 85 0 147 30 186 92s58 165 58 309V0H977" id="ap"/><path fill="#ce9178" d="M631-1118c283 0 470 204 465 491v113H322c5 250 120 375 344 375 130 0 253-25 370-76v160C925-5 804 20 672 20c-329 0-539-224-539-561 0-331 182-577 498-577zM326-662h573c0-203-91-305-272-305-183 0-284 102-301 305" id="aq"/><path fill="#ce9178" d="M442-897c93-139 173-221 377-221 79 0 159 15 240 45l-49 166c-82-30-157-45-224-45-221 0-340 134-340 360V0H264v-1098h148l22 201h8" id="ar"/><path fill="#ce9178" d="M739-1436c0 71-43 115-106 115-71 0-107-38-107-115 0-76 36-114 107-114s106 38 106 114zM541-954l-269-21v-123h451v955l352 20V0H197v-123l344-20v-811" id="as"/><path fill="#ce9178" d="M172-543c0-365 197-575 553-575 119 0 231 20 336 59l-62 158c-100-38-189-57-268-57-247 0-371 138-371 413 0 271 120 406 361 406 105 0 212-21 321-62v160C953 0 843 20 713 20c-347 1-541-210-541-563" id="at"/><path fill="#ce9178" d="M596-1118c288 2 430 92 430 366V0H895l-37-152h-8C752-34 680 17 483 20 272 23 135-98 135-307c0-221 170-337 510-348l203-7c15-197-55-305-244-305-98 0-207 27-328 82l-63-137c131-64 258-96 383-96zm-72 991c194 0 325-116 322-311v-99c-251 15-522-6-522 232 0 119 67 178 200 178" id="au"/><path fill="#ce9178" d="M887 0v-707c0-173-79-260-238-260-205 0-307 133-307 398V0H160v-1098h147l27 148h10c69-112 181-168 336-168 259 0 389 134 389 401V0H887" id="av"/><g id="a"><use transform="matrix(0.005859375,0,0,0.005859375,0,0)" xlink:href="#ao"/><use transform="matrix(0.005859375,0,0,0.005859375,7.201171875,0)" xlink:href="#ap"/><use transform="matrix(0.005859375,0,0,0.005859375,14.40234375,0)" xlink:href="#aq"/><use transform="matrix(0.005859375,0,0,0.005859375,21.603515625,0)" xlink:href="#ar"/><use transform="matrix(0.005859375,0,0,0.005859375,28.8046875,0)" xlink:href="#as"/><use transform="matrix(0.005859375,0,0,0.005859375,36.005859375,0)" xlink:href="#at"/><use transform="matrix(0.005859375,0,0,0.005859375,43.20703125,0)" xlink:href="#au"/><use transform="matrix(0.005859375,0,0,0.005859375,50.408203125,0)" xlink:href="#av"/></g><path fill="#ce9178" d="M326-731c0 353 139 584 471 588 87 0 196-19 327-58v162c-97 39-217 59-358 59-433-1-637-301-637-753 0-438 243-750 668-750 147 0 274 29 383 86l-78 156c-103-52-204-78-305-78-307 1-471 259-471 588" id="aw"/><path fill="#ce9178" d="M578-131c239 0 309-137 309-397v-570h182V0H922l-27-147h-10C815-36 704 20 551 20c-261 0-391-134-391-401v-717h182v707c0 173 79 260 236 260" id="ax"/><path fill="#ce9178" d="M82-1098h188l262 654c55 137 84 233 89 290h6c15-75 45-172 90-292l239-652h189L670 143c-45 116-99 201-156 261-87 92-259 104-414 71V330c92 17 226 18 286-29 67-53 115-195 153-291" id="ay"/><g id="b"><use transform="matrix(0.005859375,0,0,0.005859375,0,0)" xlink:href="#aw"/><use transform="matrix(0.005859375,0,0,0.005859375,7.201171875,0)" xlink:href="#ax"/><use transform="matrix(0.005859375,0,0,0.005859375,14.40234375,0)" xlink:href="#ar"/><use transform="matrix(0.005859375,0,0,0.005859375,21.603515625,0)" xlink:href="#ar"/><use transform="matrix(0.005859375,0,0,0.005859375,28.8046875,0)" xlink:href="#aq"/><use transform="matrix(0.005859375,0,0,0.005859375,36.005859375,0)" xlink:href="#av"/><use transform="matrix(0.005859375,0,0,0.005859375,43.20703125,0)" xlink:href="#at"/><use transform="matrix(0.005859375,0,0,0.005859375,50.408203125,0)" xlink:href="#ay"/></g><path fill="#ce9178" d="M1112-551c0 331-186 571-502 571-301 0-495-251-495-571 0-330 184-567 501-567 302 0 496 249 496 567zM614-131c207 0 310-140 310-420 0-277-104-416-312-416-206 0-309 139-309 416 0 280 104 420 311 420" id="az"/><path fill="#ce9178" d="M532-1413l-268-21v-122h451v1413l352 20V0H188v-123l344-20v-1270" id="aA"/><path fill="#ce9178" d="M1020-150v138C933 9 849 20 768 20 527 20 406-95 406-324v-637H139v-94l267-49 77-287h105v293h438v137H588v637c0 130 64 195 192 195 62 0 142-7 240-21" id="aB"/><path fill="#ce9178" d="M1243 324H-16V184h1259v140" id="aC"/><path fill="#ce9178" d="M285-465v-168h659v168H285" id="aD"/><path fill="#ce9178" d="M979-451c3 293-217 471-518 471-145 0-253-20-324-59v-166c108 41 211 62 309 62 205 2 347-105 347-306v-1013h186v1011" id="aE"/><path fill="#ce9178" d="M1087-391c0 281-226 411-532 411-177 0-315-23-414-69v-178c141 57 279 86 414 86 233 0 350-80 350-240 0-69-24-123-71-160s-142-82-285-133c-139-49-239-106-299-174s-90-156-90-264c2-252 211-371 481-371 153 0 291 26 416 78l-64 164c-129-52-249-78-360-78-195 0-293 70-293 209 0 68 22 123 66 164s134 85 270 133c164 58 273 119 328 181s83 143 83 241" id="aF"/><path fill="#ce9178" d="M707 0H520v-1298H102v-164h1022v164H707V0" id="aG"/><path fill="#ce9178" d="M616 20C261 20 84-232 84-735c0-500 178-750 534-750 171 0 301 65 392 195s137 316 137 557-46 426-138 557S786 20 616 20zm0-163c115 0 195-51 254-145 102-163 102-730-2-890-59-92-137-143-250-143-225 0-337 196-337 588 0 393 112 590 335 590" id="aH"/><path fill="#ce9178" d="M373-604V0H186v-1462h357c347 0 520 138 520 415 0 191-96 322-289 392L1171 0H952L602-604H373zm497-434c0-207-118-263-338-265H373v541h164c215-1 333-70 333-276" id="aI"/><path fill="#ce9178" d="M614-301c101 0 152 55 152 166S715 31 614 31 463-24 463-135s50-166 151-166" id="aJ"/><path fill="#ce9178" d="M1026-301c0 225-197 321-448 321-165 0-290-23-375-69v-166c129 57 252 86 370 86 183 0 275-54 275-162 0-38-16-71-49-99s-108-63-226-106c-156-57-253-112-293-160s-61-105-61-171c2-338 524-340 789-217l-60 149c-121-48-228-72-319-72-157 0-236 44-236 133 0 41 17 74 51 98s111 57 232 101c141 51 234 101 280 151s70 111 70 183" id="aK"/><path fill="#ce9178" d="M498 0L82-1098h188l240 652c57 154 90 262 100 325h6c67-256 244-708 340-977h189L729 0H498" id="aL"/><g id="c"><use transform="matrix(0.005859375,0,0,0.005859375,0,0)" xlink:href="#at"/><use transform="matrix(0.005859375,0,0,0.005859375,7.201171875,0)" xlink:href="#az"/><use transform="matrix(0.005859375,0,0,0.005859375,14.40234375,0)" xlink:href="#aA"/><use transform="matrix(0.005859375,0,0,0.005859375,21.603515625,0)" xlink:href="#aA"/><use transform="matrix(0.005859375,0,0,0.005859375,28.8046875,0)" xlink:href="#aq"/><use transform="matrix(0.005859375,0,0,0.005859375,36.005859375,0)" xlink:href="#at"/><use transform="matrix(0.005859375,0,0,0.005859375,43.20703125,0)" xlink:href="#aB"/><use transform="matrix(0.005859375,0,0,0.005859375,50.408203125,0)" xlink:href="#as"/><use transform="matrix(0.005859375,0,0,0.005859375,57.609375,0)" xlink:href="#az"/><use transform="matrix(0.005859375,0,0,0.005859375,64.810546875,0)" xlink:href="#av"/><use transform="matrix(0.005859375,0,0,0.005859375,72.01171875,0)" xlink:href="#aC"/><use transform="matrix(0.005859375,0,0,0.005859375,79.212890625,0)" xlink:href="#ap"/><use transform="matrix(0.005859375,0,0,0.005859375,86.4140625,0)" xlink:href="#az"/><use transform="matrix(0.005859375,0,0,0.005859375,93.615234375,0)" xlink:href="#av"/><use transform="matrix(0.005859375,0,0,0.005859375,100.81640625,0)" xlink:href="#aq"/><use transform="matrix(0.005859375,0,0,0.005859375,108.017578125,0)" xlink:href="#ay"/><use transform="matrix(0.005859375,0,0,0.005859375,115.21875,0)" xlink:href="#aD"/><use transform="matrix(0.005859375,0,0,0.005859375,122.419921875,0)" xlink:href="#aE"/><use transform="matrix(0.005859375,0,0,0.005859375,129.62109375,0)" xlink:href="#aF"/><use transform="matrix(0.005859375,0,0,0.005859375,136.822265625,0)" xlink:href="#aG"/><use transform="matrix(0.005859375,0,0,0.005859375,144.0234375,0)" xlink:href="#aH"/><use transform="matrix(0.005859375,0,0,0.005859375,151.224609375,0)" xlink:href="#aI"/><use transform="matrix(0.005859375,0,0,0.005859375,158.42578125,0)" xlink:href="#aJ"/><use transform="matrix(0.005859375,0,0,0.005859375,165.626953125,0)" xlink:href="#at"/><use transform="matrix(0.005859375,0,0,0.005859375,172.828125,0)" xlink:href="#aK"/><use transform="matrix(0.005859375,0,0,0.005859375,180.029296875,0)" xlink:href="#aL"/></g><path d="M30 0v-248h187v28H63v79h144v27H63v87h162V0H30" id="aM"/><path d="M141 0L90-78 38 0H4l68-98-65-92h35l48 74 47-74h35l-64 92 68 98h-35" id="aN"/><path d="M59-47c-2 24 18 29 38 22v24C64 9 27 4 27-40v-127H5v-23h24l9-43h21v43h35v23H59v120" id="aO"/><path d="M114-163C36-179 61-72 57 0H25l-1-190h30c1 12-1 29 2 39 6-27 23-49 58-41v29" id="aP"/><path d="M141-36C126-15 110 5 73 4 37 3 15-17 15-53c-1-64 63-63 125-63 3-35-9-54-41-54-24 1-41 7-42 31l-33-3c5-37 33-52 76-52 45 0 72 20 72 64v82c-1 20 7 32 28 27v20c-31 9-61-2-59-35zM48-53c0 20 12 33 32 33 41-3 63-29 60-74-43 2-92-5-92 41" id="aQ"/><path d="M96-169c-40 0-48 33-48 73s9 75 48 75c24 0 41-14 43-38l32 2c-6 37-31 61-74 61-59 0-76-41-82-99-10-93 101-131 147-64 4 7 5 14 7 22l-32 3c-4-21-16-35-41-35" id="aR"/><g id="d"><use transform="matrix(0.05,0,0,0.05,0,0)" xlink:href="#aM"/><use transform="matrix(0.05,0,0,0.05,12,0)" xlink:href="#aN"/><use transform="matrix(0.05,0,0,0.05,21,0)" xlink:href="#aO"/><use transform="matrix(0.05,0,0,0.05,26,0)" xlink:href="#aP"/><use transform="matrix(0.05,0,0,0.05,31.950000000000003,0)" xlink:href="#aQ"/><use transform="matrix(0.05,0,0,0.05,41.95,0)" xlink:href="#aR"/><use transform="matrix(0.05,0,0,0.05,50.95,0)" xlink:href="#aO"/></g><path d="M117-194c89-4 53 116 60 194h-32v-121c0-31-8-49-39-48C34-167 62-67 57 0H25l-1-190h30c1 10-1 24 2 32 11-22 29-35 61-36" id="aS"/><path d="M85-194c31 0 48 13 60 33l-1-100h32l1 261h-30c-2-10 0-23-3-31C134-8 116 4 85 4 32 4 16-35 15-94c0-66 23-100 70-100zm9 24c-40 0-46 34-46 75 0 40 6 74 45 74 42 0 51-32 51-76 0-42-9-74-50-73" id="aT"/><g id="e"><use transform="matrix(0.05,0,0,0.05,0,0)" xlink:href="#aQ"/><use transform="matrix(0.05,0,0,0.05,10,0)" xlink:href="#aS"/><use transform="matrix(0.05,0,0,0.05,20,0)" xlink:href="#aT"/></g><path d="M24 0v-261h32V0H24" id="aU"/><path d="M100-194c63 0 86 42 84 106H49c0 40 14 67 53 68 26 1 43-12 49-29l28 8c-11 28-37 45-77 45C44 4 14-33 15-96c1-61 26-98 85-98zm52 81c6-60-76-77-97-28-3 7-6 17-6 28h103" id="aV"/><g id="f"><use transform="matrix(0.05,0,0,0.05,0,0)" xlink:href="#aR"/><use transform="matrix(0.05,0,0,0.05,9,0)" xlink:href="#aU"/><use transform="matrix(0.05,0,0,0.05,12.949999999999998,0)" xlink:href="#aV"/><use transform="matrix(0.05,0,0,0.05,22.95,0)" xlink:href="#aQ"/><use transform="matrix(0.05,0,0,0.05,32.95,0)" xlink:href="#aS"/></g><path d="M232-93c-1 65-40 97-104 97C67 4 28-28 28-90v-158h33c8 89-33 224 67 224 102 0 64-133 71-224h33v155" id="aW"/><path d="M233-177c-1 41-23 64-60 70L243 0h-38l-65-103H63V0H30v-248c88 3 205-21 203 71zM63-129c60-2 137 13 137-47 0-61-80-42-137-45v92" id="aX"/><path d="M190 0L58-211 59 0H30v-248h39L202-35l-2-213h31V0h-41" id="aY"/><g id="g"><use transform="matrix(0.05,0,0,0.05,0,0)" xlink:href="#aW"/><use transform="matrix(0.05,0,0,0.05,12.950000000000001,0)" xlink:href="#aX"/><use transform="matrix(0.05,0,0,0.05,25.900000000000002,0)" xlink:href="#aY"/></g><path d="M63-220v92h138v28H63V0H30v-248h175v28H63" id="aZ"/><path d="M100-194c62-1 85 37 85 99 1 63-27 99-86 99S16-35 15-95c0-66 28-99 85-99zM99-20c44 1 53-31 53-75 0-43-8-75-51-75s-53 32-53 75 10 74 51 75" id="ba"/><g id="h"><use transform="matrix(0.05,0,0,0.05,0,0)" xlink:href="#aZ"/><use transform="matrix(0.05,0,0,0.05,10.950000000000001,0)" xlink:href="#ba"/><use transform="matrix(0.05,0,0,0.05,20.950000000000003,0)" xlink:href="#aP"/></g><path d="M106-169C34-169 62-67 57 0H25v-261h32l-1 103c12-21 28-36 61-36 89 0 53 116 60 194h-32v-121c2-32-8-49-39-48" id="bb"/><g id="i"><use transform="matrix(0.05,0,0,0.05,0,0)" xlink:href="#aV"/><use transform="matrix(0.05,0,0,0.05,10,0)" xlink:href="#aQ"/><use transform="matrix(0.05,0,0,0.05,20,0)" xlink:href="#aR"/><use transform="matrix(0.05,0,0,0.05,29,0)" xlink:href="#bb"/></g><path d="M24-231v-30h32v30H24zM24 0v-190h32V0H24" id="bc"/><path d="M179-190L93 31C79 59 56 82 12 73V49c39 6 53-20 64-50L1-190h34L92-34l54-156h33" id="bd"/><g id="j"><use transform="matrix(0.05,0,0,0.05,0,0)" xlink:href="#aT"/><use transform="matrix(0.05,0,0,0.05,10,0)" xlink:href="#bc"/><use transform="matrix(0.05,0,0,0.05,13.949999999999998,0)" xlink:href="#aR"/><use transform="matrix(0.05,0,0,0.05,22.95,0)" xlink:href="#aO"/><use transform="matrix(0.05,0,0,0.05,27.950000000000003,0)" xlink:href="#bc"/><use transform="matrix(0.05,0,0,0.05,31.899999999999995,0)" xlink:href="#ba"/><use transform="matrix(0.05,0,0,0.05,41.9,0)" xlink:href="#aS"/><use transform="matrix(0.05,0,0,0.05,51.900000000000006,0)" xlink:href="#aQ"/><use transform="matrix(0.05,0,0,0.05,61.900000000000006,0)" xlink:href="#aP"/><use transform="matrix(0.05,0,0,0.05,67.85,0)" xlink:href="#bd"/></g><path d="M101-234c-31-9-42 10-38 44h38v23H63V0H32v-167H5v-23h27c-7-52 17-82 69-68v24" id="be"/><path d="M210-169c-67 3-38 105-44 169h-31v-121c0-29-5-50-35-48C34-165 62-65 56 0H25l-1-190h30c1 10-1 24 2 32 10-44 99-50 107 0 11-21 27-35 58-36 85-2 47 119 55 194h-31v-121c0-29-5-49-35-48" id="bf"/><g id="k"><use transform="matrix(0.05,0,0,0.05,0,0)" xlink:href="#be"/><use transform="matrix(0.05,0,0,0.05,5,0)" xlink:href="#aP"/><use transform="matrix(0.05,0,0,0.05,10.95,0)" xlink:href="#ba"/><use transform="matrix(0.05,0,0,0.05,20.95,0)" xlink:href="#bf"/></g><path d="M212-179c-10-28-35-45-73-45-59 0-87 40-87 99 0 60 29 101 89 101 43 0 62-24 78-52l27 14C228-24 195 4 139 4 59 4 22-46 18-125c-6-104 99-153 187-111 19 9 31 26 39 46" id="bg"/><path d="M185-189c-5-48-123-54-124 2 14 75 158 14 163 119 3 78-121 87-175 55-17-10-28-26-33-46l33-7c5 56 141 63 141-1 0-78-155-14-162-118-5-82 145-84 179-34 5 7 8 16 11 25" id="bh"/><path d="M137 0h-34L2-248h35l83 218 83-218h36" id="bi"/><g id="l"><use transform="matrix(0.05,0,0,0.05,0,0)" xlink:href="#bg"/><use transform="matrix(0.05,0,0,0.05,12.950000000000001,0)" xlink:href="#bh"/><use transform="matrix(0.05,0,0,0.05,24.950000000000003,0)" xlink:href="#bi"/></g><path d="M30 0v-248h33v221h125V0H30" id="bj"/><path d="M135-143c-3-34-86-38-87 0 15 53 115 12 119 90S17 21 10-45l28-5c4 36 97 45 98 0-10-56-113-15-118-90-4-57 82-63 122-42 12 7 21 19 24 35" id="bk"/><g id="m"><use transform="matrix(0.05,0,0,0.05,0,0)" xlink:href="#bj"/><use transform="matrix(0.05,0,0,0.05,10,0)" xlink:href="#bc"/><use transform="matrix(0.05,0,0,0.05,13.949999999999998,0)" xlink:href="#bk"/><use transform="matrix(0.05,0,0,0.05,22.95,0)" xlink:href="#aO"/></g><g id="n"><use transform="matrix(0.05,0,0,0.05,0,0)" xlink:href="#ba"/><use transform="matrix(0.05,0,0,0.05,10,0)" xlink:href="#be"/></g><g id="o"><use transform="matrix(0.05,0,0,0.05,0,0)" xlink:href="#aT"/><use transform="matrix(0.05,0,0,0.05,10,0)" xlink:href="#bc"/><use transform="matrix(0.05,0,0,0.05,13.949999999999998,0)" xlink:href="#aR"/><use transform="matrix(0.05,0,0,0.05,22.95,0)" xlink:href="#aO"/><use transform="matrix(0.05,0,0,0.05,27.950000000000003,0)" xlink:href="#bc"/><use transform="matrix(0.05,0,0,0.05,31.899999999999995,0)" xlink:href="#ba"/><use transform="matrix(0.05,0,0,0.05,41.9,0)" xlink:href="#aS"/><use transform="matrix(0.05,0,0,0.05,51.900000000000006,0)" xlink:href="#aQ"/><use transform="matrix(0.05,0,0,0.05,61.900000000000006,0)" xlink:href="#aP"/><use transform="matrix(0.05,0,0,0.05,67.85,0)" xlink:href="#bc"/><use transform="matrix(0.05,0,0,0.05,71.8,0)" xlink:href="#aV"/><use transform="matrix(0.05,0,0,0.05,81.8,0)" xlink:href="#bk"/></g><path d="M87 75C49 33 22-17 22-94c0-76 28-126 65-167h31c-38 41-64 92-64 168S80 34 118 75H87" id="bl"/><g id="p"><use transform="matrix(0.05,0,0,0.05,0,0)" xlink:href="#bl"/><use transform="matrix(0.05,0,0,0.05,5.95,0)" xlink:href="#aZ"/><use transform="matrix(0.05,0,0,0.05,16.900000000000002,0)" xlink:href="#aP"/><use transform="matrix(0.05,0,0,0.05,22.85,0)" xlink:href="#ba"/><use transform="matrix(0.05,0,0,0.05,32.85,0)" xlink:href="#bf"/></g><g id="q"><use transform="matrix(0.05,0,0,0.05,0,0)" xlink:href="#aV"/><use transform="matrix(0.05,0,0,0.05,10,0)" xlink:href="#aQ"/><use transform="matrix(0.05,0,0,0.05,20,0)" xlink:href="#aR"/><use transform="matrix(0.05,0,0,0.05,29,0)" xlink:href="#bb"/></g><path d="M206 0h-36l-40-164L89 0H53L-1-190h32L70-26l43-164h34l41 164 42-164h31" id="bm"/><path d="M33-261c38 41 65 92 65 168S71 34 33 75H2C39 34 66-17 66-93S39-220 2-261h31" id="bn"/><g id="r"><use transform="matrix(0.05,0,0,0.05,0,0)" xlink:href="#aP"/><use transform="matrix(0.05,0,0,0.05,5.95,0)" xlink:href="#ba"/><use transform="matrix(0.05,0,0,0.05,15.949999999999998,0)" xlink:href="#bm"/><use transform="matrix(0.05,0,0,0.05,28.899999999999995,0)" xlink:href="#bn"/></g><path d="M84 4C-5 8 30-112 23-190h32v120c0 31 7 50 39 49 72-2 45-101 50-169h31l1 190h-30c-1-10 1-25-2-33-11 22-28 36-60 37" id="bo"/><g id="s"><use transform="matrix(0.056172839506172835,0,0,0.056172839506172835,0,0)" xlink:href="#be"/><use transform="matrix(0.056172839506172835,0,0,0.056172839506172835,5.617283950617283,0)" xlink:href="#bo"/><use transform="matrix(0.056172839506172835,0,0,0.056172839506172835,16.851851851851848,0)" xlink:href="#aS"/><use transform="matrix(0.056172839506172835,0,0,0.056172839506172835,28.086419753086414,0)" xlink:href="#aR"/><use transform="matrix(0.056172839506172835,0,0,0.056172839506172835,38.197530864197525,0)" xlink:href="#aO"/><use transform="matrix(0.056172839506172835,0,0,0.056172839506172835,43.81481481481481,0)" xlink:href="#bc"/><use transform="matrix(0.056172839506172835,0,0,0.056172839506172835,48.252469135802464,0)" xlink:href="#ba"/><use transform="matrix(0.056172839506172835,0,0,0.056172839506172835,59.487037037037034,0)" xlink:href="#aS"/></g><path d="M-5 72V49h209v23H-5" id="bp"/><path d="M108 0H70L1-190h34L89-25l56-165h34" id="bq"/><g id="t"><use transform="matrix(0.056172839506172835,0,0,0.056172839506172835,0,0)" xlink:href="#aT"/><use transform="matrix(0.056172839506172835,0,0,0.056172839506172835,11.234567901234566,0)" xlink:href="#aQ"/><use transform="matrix(0.056172839506172835,0,0,0.056172839506172835,22.469135802469133,0)" xlink:href="#aO"/><use transform="matrix(0.056172839506172835,0,0,0.056172839506172835,28.086419753086417,0)" xlink:href="#aQ"/><use transform="matrix(0.056172839506172835,0,0,0.056172839506172835,39.32098765432099,0)" xlink:href="#bp"/><use transform="matrix(0.056172839506172835,0,0,0.056172839506172835,50.55555555555556,0)" xlink:href="#aR"/><use transform="matrix(0.056172839506172835,0,0,0.056172839506172835,60.66666666666667,0)" xlink:href="#bk"/><use transform="matrix(0.056172839506172835,0,0,0.056172839506172835,70.77777777777779,0)" xlink:href="#bq"/></g><path d="M177-190C167-65 218 103 67 71c-23-6-38-20-44-43l32-5c15 47 100 32 89-28v-30C133-14 115 1 83 1 29 1 15-40 15-95c0-56 16-97 71-98 29-1 48 16 59 35 1-10 0-23 2-32h30zM94-22c36 0 50-32 50-73 0-42-14-75-50-75-39 0-46 34-46 75s6 73 46 73" id="br"/><g id="u"><use transform="matrix(0.05,0,0,0.05,0,0)" xlink:href="#bc"/><use transform="matrix(0.05,0,0,0.05,3.95,0)" xlink:href="#bf"/><use transform="matrix(0.05,0,0,0.05,18.900000000000002,0)" xlink:href="#aQ"/><use transform="matrix(0.05,0,0,0.05,28.900000000000002,0)" xlink:href="#br"/><use transform="matrix(0.05,0,0,0.05,38.900000000000006,0)" xlink:href="#aV"/></g><g id="v"><use transform="matrix(0.05,0,0,0.05,0,0)" xlink:href="#aO"/><use transform="matrix(0.05,0,0,0.05,5,0)" xlink:href="#bc"/><use transform="matrix(0.05,0,0,0.05,8.95,0)" xlink:href="#aO"/><use transform="matrix(0.05,0,0,0.05,13.949999999999998,0)" xlink:href="#aU"/><use transform="matrix(0.05,0,0,0.05,17.9,0)" xlink:href="#aV"/></g><g id="w"><use transform="matrix(0.05,0,0,0.05,0,0)" xlink:href="#bg"/><use transform="matrix(0.05,0,0,0.05,12.950000000000001,0)" xlink:href="#aP"/><use transform="matrix(0.05,0,0,0.05,18.900000000000002,0)" xlink:href="#aV"/><use transform="matrix(0.05,0,0,0.05,28.900000000000002,0)" xlink:href="#aQ"/><use transform="matrix(0.05,0,0,0.05,38.900000000000006,0)" xlink:href="#aO"/><use transform="matrix(0.05,0,0,0.05,43.900000000000006,0)" xlink:href="#aV"/></g><path d="M115-194c53 0 69 39 70 98 0 66-23 100-70 100C84 3 66-7 56-30L54 0H23l1-261h32v101c10-23 28-34 59-34zm-8 174c40 0 45-34 45-75 0-40-5-75-45-74-42 0-51 32-51 76 0 43 10 73 51 73" id="bs"/><g id="x"><use transform="matrix(0.05,0,0,0.05,0,0)" xlink:href="#aQ"/><use transform="matrix(0.05,0,0,0.05,10,0)" xlink:href="#bs"/><use transform="matrix(0.05,0,0,0.05,20,0)" xlink:href="#bk"/><use transform="matrix(0.05,0,0,0.05,29,0)" xlink:href="#ba"/><use transform="matrix(0.05,0,0,0.05,39,0)" xlink:href="#aU"/><use transform="matrix(0.05,0,0,0.05,42.95,0)" xlink:href="#bo"/><use transform="matrix(0.05,0,0,0.05,52.95,0)" xlink:href="#aO"/><use transform="matrix(0.05,0,0,0.05,57.95,0)" xlink:href="#aV"/></g><g id="y"><use transform="matrix(0.05,0,0,0.05,0,0)" xlink:href="#be"/><use transform="matrix(0.05,0,0,0.05,5,0)" xlink:href="#bc"/><use transform="matrix(0.05,0,0,0.05,8.95,0)" xlink:href="#aU"/><use transform="matrix(0.05,0,0,0.05,12.899999999999999,0)" xlink:href="#aV"/></g><g id="z"><use transform="matrix(0.05,0,0,0.05,0,0)" xlink:href="#aS"/><use transform="matrix(0.05,0,0,0.05,10,0)" xlink:href="#aQ"/><use transform="matrix(0.05,0,0,0.05,20,0)" xlink:href="#bf"/><use transform="matrix(0.05,0,0,0.05,34.95,0)" xlink:href="#aV"/></g><g id="A"><use transform="matrix(0.056172839506172814,0,0,0.056172839506172814,0,0)" xlink:href="#be"/><use transform="matrix(0.056172839506172814,0,0,0.056172839506172814,5.617283950617281,0)" xlink:href="#bo"/><use transform="matrix(0.056172839506172814,0,0,0.056172839506172814,16.851851851851844,0)" xlink:href="#aS"/><use transform="matrix(0.056172839506172814,0,0,0.056172839506172814,28.086419753086407,0)" xlink:href="#aR"/><use transform="matrix(0.056172839506172814,0,0,0.056172839506172814,38.19753086419752,0)" xlink:href="#aO"/><use transform="matrix(0.056172839506172814,0,0,0.056172839506172814,43.814814814814795,0)" xlink:href="#bc"/><use transform="matrix(0.056172839506172814,0,0,0.056172839506172814,48.25246913580245,0)" xlink:href="#ba"/><use transform="matrix(0.056172839506172814,0,0,0.056172839506172814,59.48703703703701,0)" xlink:href="#aS"/></g><g id="B"><use transform="matrix(0.056172839506172814,0,0,0.056172839506172814,0,0)" xlink:href="#be"/><use transform="matrix(0.056172839506172814,0,0,0.056172839506172814,5.617283950617281,0)" xlink:href="#bc"/><use transform="matrix(0.056172839506172814,0,0,0.056172839506172814,10.054938271604934,0)" xlink:href="#aS"/><use transform="matrix(0.056172839506172814,0,0,0.056172839506172814,21.289506172839495,0)" xlink:href="#aT"/><use transform="matrix(0.056172839506172814,0,0,0.056172839506172814,32.52407407407406,0)" xlink:href="#bc"/><use transform="matrix(0.056172839506172814,0,0,0.056172839506172814,36.96172839506171,0)" xlink:href="#aS"/><use transform="matrix(0.056172839506172814,0,0,0.056172839506172814,48.196296296296275,0)" xlink:href="#br"/><use transform="matrix(0.056172839506172814,0,0,0.056172839506172814,59.43086419753084,0)" xlink:href="#bp"/><use transform="matrix(0.056172839506172814,0,0,0.056172839506172814,70.6654320987654,0)" xlink:href="#bo"/><use transform="matrix(0.056172839506172814,0,0,0.056172839506172814,81.89999999999995,0)" xlink:href="#aP"/><use transform="matrix(0.056172839506172814,0,0,0.056172839506172814,88.58456790123451,0)" xlink:href="#aU"/></g><path d="M33 0v-248h34V0H33" id="bt"/><g id="C"><use transform="matrix(0.05,0,0,0.05,0,0)" xlink:href="#bt"/><use transform="matrix(0.05,0,0,0.05,5,0)" xlink:href="#bf"/><use transform="matrix(0.05,0,0,0.05,19.950000000000003,0)" xlink:href="#aQ"/><use transform="matrix(0.05,0,0,0.05,29.950000000000003,0)" xlink:href="#br"/><use transform="matrix(0.05,0,0,0.05,39.95,0)" xlink:href="#aV"/></g><path d="M30-248c118-7 216 8 213 122C240-48 200 0 122 0H30v-248zM63-27c89 8 146-16 146-99s-60-101-146-95v194" id="bu"/><g id="D"><use transform="matrix(0.05,0,0,0.05,0,0)" xlink:href="#bu"/><use transform="matrix(0.05,0,0,0.05,12.950000000000001,0)" xlink:href="#ba"/><use transform="matrix(0.05,0,0,0.05,22.950000000000003,0)" xlink:href="#bm"/><use transform="matrix(0.05,0,0,0.05,35.900000000000006,0)" xlink:href="#aS"/><use transform="matrix(0.05,0,0,0.05,45.900000000000006,0)" xlink:href="#aU"/><use transform="matrix(0.05,0,0,0.05,49.85000000000001,0)" xlink:href="#ba"/><use transform="matrix(0.05,0,0,0.05,59.85,0)" xlink:href="#aQ"/><use transform="matrix(0.05,0,0,0.05,69.85000000000001,0)" xlink:href="#aT"/></g><g id="E"><use transform="matrix(0.05,0,0,0.05,0,0)" xlink:href="#aW"/><use transform="matrix(0.05,0,0,0.05,12.950000000000001,0)" xlink:href="#aX"/><use transform="matrix(0.05,0,0,0.05,25.900000000000002,0)" xlink:href="#bj"/></g><g id="F"><use transform="matrix(0.05,0,0,0.05,0,0)" xlink:href="#bl"/><use transform="matrix(0.05,0,0,0.05,5.95,0)" xlink:href="#aS"/><use transform="matrix(0.05,0,0,0.05,15.949999999999998,0)" xlink:href="#ba"/><use transform="matrix(0.05,0,0,0.05,25.950000000000003,0)" xlink:href="#aO"/></g><path d="M115-194c55 1 70 41 70 98S169 2 115 4C84 4 66-9 55-30l1 105H24l-1-265h31l2 30c10-21 28-34 59-34zm-8 174c40 0 45-34 45-75s-6-73-45-74c-42 0-51 32-51 76 0 43 10 73 51 73" id="bv"/><g id="G"><use transform="matrix(0.05,0,0,0.05,0,0)" xlink:href="#aT"/><use transform="matrix(0.05,0,0,0.05,10,0)" xlink:href="#aV"/><use transform="matrix(0.05,0,0,0.05,20,0)" xlink:href="#aV"/><use transform="matrix(0.05,0,0,0.05,30,0)" xlink:href="#bv"/></g><path d="M143 0L79-87 56-68V0H24v-261h32v163l83-92h37l-77 82L181 0h-38" id="bw"/><g id="H"><use transform="matrix(0.05,0,0,0.05,0,0)" xlink:href="#aU"/><use transform="matrix(0.05,0,0,0.05,3.95,0)" xlink:href="#bc"/><use transform="matrix(0.05,0,0,0.05,7.9,0)" xlink:href="#aS"/><use transform="matrix(0.05,0,0,0.05,17.9,0)" xlink:href="#bw"/><use transform="matrix(0.05,0,0,0.05,26.899999999999995,0)" xlink:href="#bn"/></g><g id="I"><use transform="matrix(0.05,0,0,0.05,0,0)" xlink:href="#bt"/><use transform="matrix(0.05,0,0,0.05,5,0)" xlink:href="#be"/></g><g id="J"><use transform="matrix(0.05,0,0,0.05,0,0)" xlink:href="#aW"/><use transform="matrix(0.05,0,0,0.05,12.950000000000001,0)" xlink:href="#aX"/><use transform="matrix(0.05,0,0,0.05,25.900000000000002,0)" xlink:href="#bj"/></g><g id="K"><use transform="matrix(0.05,0,0,0.05,0,0)" xlink:href="#be"/><use transform="matrix(0.05,0,0,0.05,5,0)" xlink:href="#ba"/><use transform="matrix(0.05,0,0,0.05,15,0)" xlink:href="#bo"/><use transform="matrix(0.05,0,0,0.05,25,0)" xlink:href="#aS"/><use transform="matrix(0.05,0,0,0.05,35,0)" xlink:href="#aT"/></g><path d="M127-220V0H93v-220H8v-28h204v28h-85" id="bx"/><g id="L"><use transform="matrix(0.056172839506172835,0,0,0.056172839506172835,0,0)" xlink:href="#bx"/><use transform="matrix(0.056172839506172835,0,0,0.056172839506172835,12.30185185185185,0)" xlink:href="#aX"/><use transform="matrix(0.056172839506172835,0,0,0.056172839506172835,26.850617283950612,0)" xlink:href="#aW"/><use transform="matrix(0.056172839506172835,0,0,0.056172839506172835,41.399382716049374,0)" xlink:href="#aM"/></g><g id="M"><use transform="matrix(0.056172839506172835,0,0,0.056172839506172835,0,0)" xlink:href="#be"/><use transform="matrix(0.056172839506172835,0,0,0.056172839506172835,5.617283950617283,0)" xlink:href="#bo"/><use transform="matrix(0.056172839506172835,0,0,0.056172839506172835,16.851851851851848,0)" xlink:href="#aS"/><use transform="matrix(0.056172839506172835,0,0,0.056172839506172835,28.086419753086414,0)" xlink:href="#aR"/><use transform="matrix(0.056172839506172835,0,0,0.056172839506172835,38.197530864197525,0)" xlink:href="#aO"/><use transform="matrix(0.056172839506172835,0,0,0.056172839506172835,43.81481481481481,0)" xlink:href="#bc"/><use transform="matrix(0.056172839506172835,0,0,0.056172839506172835,48.252469135802464,0)" xlink:href="#ba"/><use transform="matrix(0.056172839506172835,0,0,0.056172839506172835,59.487037037037034,0)" xlink:href="#aS"/></g><g id="N"><use transform="matrix(0.056172839506172835,0,0,0.056172839506172835,0,0)" xlink:href="#bc"/><use transform="matrix(0.056172839506172835,0,0,0.056172839506172835,4.4376543209876536,0)" xlink:href="#bf"/><use transform="matrix(0.056172839506172835,0,0,0.056172839506172835,21.23333333333333,0)" xlink:href="#aQ"/><use transform="matrix(0.056172839506172835,0,0,0.056172839506172835,32.4679012345679,0)" xlink:href="#br"/><use transform="matrix(0.056172839506172835,0,0,0.056172839506172835,43.70246913580246,0)" xlink:href="#aV"/><use transform="matrix(0.056172839506172835,0,0,0.056172839506172835,54.93703703703703,0)" xlink:href="#bp"/><use transform="matrix(0.056172839506172835,0,0,0.056172839506172835,66.1716049382716,0)" xlink:href="#aT"/><use transform="matrix(0.056172839506172835,0,0,0.056172839506172835,77.40617283950617,0)" xlink:href="#aV"/><use transform="matrix(0.056172839506172835,0,0,0.056172839506172835,88.64074074074074,0)" xlink:href="#aV"/><use transform="matrix(0.056172839506172835,0,0,0.056172839506172835,99.87530864197531,0)" xlink:href="#bv"/><use transform="matrix(0.056172839506172835,0,0,0.056172839506172835,111.10987654320988,0)" xlink:href="#bp"/><use transform="matrix(0.056172839506172835,0,0,0.056172839506172835,122.34444444444446,0)" xlink:href="#bo"/><use transform="matrix(0.056172839506172835,0,0,0.056172839506172835,133.57901234567902,0)" xlink:href="#aP"/><use transform="matrix(0.056172839506172835,0,0,0.056172839506172835,140.2635802469136,0)" xlink:href="#aU"/></g><path d="M205 0l-28-72H64L36 0H1l101-248h38L239 0h-34zm-38-99l-47-123c-12 45-31 82-46 123h93" id="by"/><g id="O"><use transform="matrix(0.05,0,0,0.05,0,0)" xlink:href="#aZ"/><use transform="matrix(0.05,0,0,0.05,9.950000000000001,0)" xlink:href="#by"/><use transform="matrix(0.05,0,0,0.05,21.950000000000003,0)" xlink:href="#bj"/><use transform="matrix(0.05,0,0,0.05,31.950000000000003,0)" xlink:href="#bh"/><use transform="matrix(0.05,0,0,0.05,43.95,0)" xlink:href="#aM"/></g><g id="P"><use transform="matrix(0.05,0,0,0.05,0,0)" xlink:href="#aX"/><use transform="matrix(0.05,0,0,0.05,12.950000000000001,0)" xlink:href="#aV"/><use transform="matrix(0.05,0,0,0.05,22.950000000000003,0)" xlink:href="#bv"/><use transform="matrix(0.05,0,0,0.05,32.95,0)" xlink:href="#ba"/><use transform="matrix(0.05,0,0,0.05,42.95,0)" xlink:href="#aP"/><use transform="matrix(0.05,0,0,0.05,48.900000000000006,0)" xlink:href="#aO"/></g><g id="Q"><use transform="matrix(0.05,0,0,0.05,0,0)" xlink:href="#aV"/><use transform="matrix(0.05,0,0,0.05,10,0)" xlink:href="#aP"/><use transform="matrix(0.05,0,0,0.05,15.949999999999998,0)" xlink:href="#aP"/><use transform="matrix(0.05,0,0,0.05,21.9,0)" xlink:href="#ba"/><use transform="matrix(0.05,0,0,0.05,31.899999999999995,0)" xlink:href="#aP"/></g><g id="R"><use transform="matrix(0.05,0,0,0.05,0,0)" xlink:href="#bt"/><use transform="matrix(0.05,0,0,0.05,5,0)" xlink:href="#bf"/><use transform="matrix(0.05,0,0,0.05,19.950000000000003,0)" xlink:href="#aQ"/><use transform="matrix(0.05,0,0,0.05,29.950000000000003,0)" xlink:href="#br"/><use transform="matrix(0.05,0,0,0.05,39.95,0)" xlink:href="#aV"/></g><g id="S"><use transform="matrix(0.05,0,0,0.05,0,0)" xlink:href="#bk"/><use transform="matrix(0.05,0,0,0.05,9,0)" xlink:href="#aQ"/><use transform="matrix(0.05,0,0,0.05,19,0)" xlink:href="#bq"/><use transform="matrix(0.05,0,0,0.05,28,0)" xlink:href="#aV"/><use transform="matrix(0.05,0,0,0.05,38,0)" xlink:href="#aT"/></g><g id="T"><use transform="matrix(0.05,0,0,0.05,0,0)" xlink:href="#aT"/><use transform="matrix(0.05,0,0,0.05,10,0)" xlink:href="#bc"/><use transform="matrix(0.05,0,0,0.05,13.949999999999998,0)" xlink:href="#aP"/><use transform="matrix(0.05,0,0,0.05,19.9,0)" xlink:href="#aV"/><use transform="matrix(0.05,0,0,0.05,29.899999999999995,0)" xlink:href="#aR"/><use transform="matrix(0.05,0,0,0.05,38.9,0)" xlink:href="#aO"/><use transform="matrix(0.05,0,0,0.05,43.9,0)" xlink:href="#ba"/><use transform="matrix(0.05,0,0,0.05,53.900000000000006,0)" xlink:href="#aP"/><use transform="matrix(0.05,0,0,0.05,59.85,0)" xlink:href="#bd"/></g><path d="M143 4C61 4 22-44 18-125c-5-107 100-154 193-111 17 8 29 25 37 43l-32 9c-13-25-37-40-76-40-61 0-88 39-88 99 0 61 29 100 91 101 35 0 62-11 79-27v-45h-74v-28h105v86C228-13 192 4 143 4" id="bz"/><g id="U"><use transform="matrix(0.05,0,0,0.05,0,0)" xlink:href="#bz"/><use transform="matrix(0.05,0,0,0.05,14,0)" xlink:href="#aV"/><use transform="matrix(0.05,0,0,0.05,24,0)" xlink:href="#aO"/></g><g id="V"><use transform="matrix(0.05,0,0,0.05,0,0)" xlink:href="#bs"/><use transform="matrix(0.05,0,0,0.05,10,0)" xlink:href="#bc"/><use transform="matrix(0.05,0,0,0.05,13.949999999999998,0)" xlink:href="#aS"/><use transform="matrix(0.05,0,0,0.05,23.95,0)" xlink:href="#aQ"/><use transform="matrix(0.05,0,0,0.05,33.95,0)" xlink:href="#aP"/><use transform="matrix(0.05,0,0,0.05,39.900000000000006,0)" xlink:href="#bd"/></g><g id="W"><use transform="matrix(0.05,0,0,0.05,0,0)" xlink:href="#bo"/><use transform="matrix(0.05,0,0,0.05,10,0)" xlink:href="#aP"/><use transform="matrix(0.05,0,0,0.05,15.949999999999998,0)" xlink:href="#aU"/></g><g id="X"><use transform="matrix(0.05,0,0,0.05,0,0)" xlink:href="#bh"/><use transform="matrix(0.05,0,0,0.05,12,0)" xlink:href="#aO"/><use transform="matrix(0.05,0,0,0.05,17,0)" xlink:href="#ba"/><use transform="matrix(0.05,0,0,0.05,27,0)" xlink:href="#aP"/><use transform="matrix(0.05,0,0,0.05,32.95,0)" xlink:href="#aV"/></g><path d="M68-38c1 34 0 65-14 84H32c9-13 17-26 17-46H33v-38h35" id="bA"/><g id="Y"><use transform="matrix(0.05,0,0,0.05,0,0)" xlink:href="#bc"/><use transform="matrix(0.05,0,0,0.05,3.95,0)" xlink:href="#bf"/><use transform="matrix(0.05,0,0,0.05,18.900000000000002,0)" xlink:href="#aQ"/><use transform="matrix(0.05,0,0,0.05,28.900000000000002,0)" xlink:href="#br"/><use transform="matrix(0.05,0,0,0.05,38.900000000000006,0)" xlink:href="#aV"/><use transform="matrix(0.05,0,0,0.05,48.900000000000006,0)" xlink:href="#bA"/></g><g id="Z"><use transform="matrix(0.05,0,0,0.05,0,0)" xlink:href="#aR"/><use transform="matrix(0.05,0,0,0.05,9,0)" xlink:href="#aQ"/><use transform="matrix(0.05,0,0,0.05,19,0)" xlink:href="#aU"/><use transform="matrix(0.05,0,0,0.05,22.95,0)" xlink:href="#aR"/><use transform="matrix(0.05,0,0,0.05,31.950000000000003,0)" xlink:href="#bo"/><use transform="matrix(0.05,0,0,0.05,41.95,0)" xlink:href="#aU"/><use transform="matrix(0.05,0,0,0.05,45.900000000000006,0)" xlink:href="#aQ"/><use transform="matrix(0.05,0,0,0.05,55.900000000000006,0)" xlink:href="#aO"/><use transform="matrix(0.05,0,0,0.05,60.900000000000006,0)" xlink:href="#aV"/><use transform="matrix(0.05,0,0,0.05,70.9,0)" xlink:href="#bk"/></g><path d="M27 0v-27h64v-190l-56 39v-29l58-41h29v221h61V0H27" id="bB"/><g id="aa"><use transform="matrix(0.05,0,0,0.05,0,0)" xlink:href="#bk"/><use transform="matrix(0.05,0,0,0.05,9,0)" xlink:href="#bb"/><use transform="matrix(0.05,0,0,0.05,19,0)" xlink:href="#aQ"/><use transform="matrix(0.05,0,0,0.05,29,0)" xlink:href="#bB"/></g><g id="ab"><use transform="matrix(0.05,0,0,0.05,0,0)" xlink:href="#aR"/><use transform="matrix(0.05,0,0,0.05,9,0)" xlink:href="#bb"/><use transform="matrix(0.05,0,0,0.05,19,0)" xlink:href="#aV"/><use transform="matrix(0.05,0,0,0.05,29,0)" xlink:href="#aR"/><use transform="matrix(0.05,0,0,0.05,38,0)" xlink:href="#bw"/><use transform="matrix(0.05,0,0,0.05,47,0)" xlink:href="#bk"/><use transform="matrix(0.05,0,0,0.05,56,0)" xlink:href="#bo"/><use transform="matrix(0.05,0,0,0.05,66,0)" xlink:href="#bf"/><use transform="matrix(0.05,0,0,0.05,80.95,0)" xlink:href="#bA"/></g><g id="ac"><use transform="matrix(0.05,0,0,0.05,0,0)" xlink:href="#aQ"/><use transform="matrix(0.05,0,0,0.05,10,0)" xlink:href="#aS"/><use transform="matrix(0.05,0,0,0.05,20,0)" xlink:href="#aT"/></g><g id="ad"><use transform="matrix(0.05,0,0,0.05,0,0)" xlink:href="#bo"/><use transform="matrix(0.05,0,0,0.05,10,0)" xlink:href="#bv"/><use transform="matrix(0.05,0,0,0.05,20,0)" xlink:href="#aT"/><use transform="matrix(0.05,0,0,0.05,30,0)" xlink:href="#aQ"/><use transform="matrix(0.05,0,0,0.05,40,0)" xlink:href="#aO"/><use transform="matrix(0.05,0,0,0.05,45,0)" xlink:href="#aV"/><use transform="matrix(0.05,0,0,0.05,55,0)" xlink:href="#bk"/></g><g id="ae"><use transform="matrix(0.05,0,0,0.05,0,0)" xlink:href="#bf"/><use transform="matrix(0.05,0,0,0.05,14.950000000000001,0)" xlink:href="#aV"/><use transform="matrix(0.05,0,0,0.05,24.950000000000003,0)" xlink:href="#aO"/><use transform="matrix(0.05,0,0,0.05,29.950000000000003,0)" xlink:href="#aQ"/><use transform="matrix(0.05,0,0,0.05,39.95,0)" xlink:href="#aT"/><use transform="matrix(0.05,0,0,0.05,49.95,0)" xlink:href="#aQ"/><use transform="matrix(0.05,0,0,0.05,59.95,0)" xlink:href="#aO"/><use transform="matrix(0.05,0,0,0.05,64.95,0)" xlink:href="#aQ"/></g><g id="af"><use transform="matrix(0.05,0,0,0.05,0,0)" xlink:href="#aR"/><use transform="matrix(0.05,0,0,0.05,9,0)" xlink:href="#bk"/><use transform="matrix(0.05,0,0,0.05,18,0)" xlink:href="#bq"/></g><g id="ag"><use transform="matrix(0.05,0,0,0.05,0,0)" xlink:href="#bm"/><use transform="matrix(0.05,0,0,0.05,12.950000000000001,0)" xlink:href="#bc"/><use transform="matrix(0.05,0,0,0.05,16.900000000000002,0)" xlink:href="#aO"/><use transform="matrix(0.05,0,0,0.05,21.900000000000002,0)" xlink:href="#bb"/></g><g id="ah"><use transform="matrix(0.05,0,0,0.05,0,0)" xlink:href="#aQ"/><use transform="matrix(0.05,0,0,0.05,10,0)" xlink:href="#bv"/><use transform="matrix(0.05,0,0,0.05,20,0)" xlink:href="#bv"/><use transform="matrix(0.05,0,0,0.05,30,0)" xlink:href="#aV"/><use transform="matrix(0.05,0,0,0.05,40,0)" xlink:href="#aS"/><use transform="matrix(0.05,0,0,0.05,50,0)" xlink:href="#aT"/></g><g id="ai"><use transform="matrix(0.056172839506172835,0,0,0.056172839506172835,0,0)" xlink:href="#bk"/><use transform="matrix(0.056172839506172835,0,0,0.056172839506172835,10.11111111111111,0)" xlink:href="#aQ"/><use transform="matrix(0.056172839506172835,0,0,0.056172839506172835,21.345679012345677,0)" xlink:href="#bq"/><use transform="matrix(0.056172839506172835,0,0,0.056172839506172835,31.456790123456788,0)" xlink:href="#aV"/><use transform="matrix(0.056172839506172835,0,0,0.056172839506172835,42.691358024691354,0)" xlink:href="#bp"/><use transform="matrix(0.056172839506172835,0,0,0.056172839506172835,53.925925925925924,0)" xlink:href="#bc"/><use transform="matrix(0.056172839506172835,0,0,0.056172839506172835,58.36358024691358,0)" xlink:href="#bf"/><use transform="matrix(0.056172839506172835,0,0,0.056172839506172835,75.15925925925926,0)" xlink:href="#aQ"/><use transform="matrix(0.056172839506172835,0,0,0.056172839506172835,86.39382716049383,0)" xlink:href="#br"/><use transform="matrix(0.056172839506172835,0,0,0.056172839506172835,97.6283950617284,0)" xlink:href="#aV"/></g><g id="aj"><use transform="matrix(0.05,0,0,0.05,0,0)" xlink:href="#aM"/><use transform="matrix(0.05,0,0,0.05,12,0)" xlink:href="#aS"/><use transform="matrix(0.05,0,0,0.05,22,0)" xlink:href="#aT"/></g><g id="ak"><use transform="matrix(0.05,0,0,0.05,0,0)" xlink:href="#be"/><use transform="matrix(0.05,0,0,0.05,5,0)" xlink:href="#ba"/><use transform="matrix(0.05,0,0,0.05,15,0)" xlink:href="#aP"/></g><g id="al"><use transform="matrix(0.05,0,0,0.05,0,0)" xlink:href="#aU"/><use transform="matrix(0.05,0,0,0.05,3.95,0)" xlink:href="#ba"/><use transform="matrix(0.05,0,0,0.05,13.949999999999998,0)" xlink:href="#ba"/><use transform="matrix(0.05,0,0,0.05,23.95,0)" xlink:href="#bv"/></g><g id="am"><use transform="matrix(0.09938271604938267,0,0,0.09938271604938267,0,0)" xlink:href="#aY"/><use transform="matrix(0.09938271604938267,0,0,0.09938271604938267,25.740123456790112,0)" xlink:href="#aV"/><use transform="matrix(0.09938271604938267,0,0,0.09938271604938267,45.616666666666646,0)" xlink:href="#aN"/><use transform="matrix(0.09938271604938267,0,0,0.09938271604938267,63.50555555555553,0)" xlink:href="#aO"/></g><g id="an"><use transform="matrix(0.09938271604938267,0,0,0.09938271604938267,0,0)" xlink:href="#bj"/><use transform="matrix(0.09938271604938267,0,0,0.09938271604938267,19.876543209876534,0)" xlink:href="#ba"/><use transform="matrix(0.09938271604938267,0,0,0.09938271604938267,39.75308641975307,0)" xlink:href="#ba"/><use transform="matrix(0.09938271604938267,0,0,0.09938271604938267,59.629629629629605,0)" xlink:href="#bv"/></g></defs></g></svg>